<?xml version="1.0" encoding="UTF-8"?>
<!DOCTYPE svg PUBLIC "-//W3C//DTD SVG 1.1//EN" "http://www.w3.org/Graphics/SVG/1.1/DTD/svg11.dtd">
<svg version="1.1" xmlns="http://www.w3.org/2000/svg" xmlns:xlink="http://www.w3.org/1999/xlink" x="0" y="0" width="1750" height="550" viewBox="0, 0, 1750, 550">
  <g id="Background">
    <rect x="0" y="0" width="1750" height="550" fill="#000000" fill-opacity="0"/>
  </g>
  <defs>
    <linearGradient id="Gradient_1" gradientUnits="userSpaceOnUse" x1="323.122" y1="545.822" x2="227.506" y2="4.178">
      <stop offset="0" stop-color="#854BE8"/>
      <stop offset="1" stop-color="#C23CE1"/>
    </linearGradient>
    <linearGradient id="Gradient_2" gradientUnits="userSpaceOnUse" x1="323.145" y1="545.822" x2="227.522" y2="4.178">
      <stop offset="0" stop-color="#854BE8"/>
      <stop offset="1" stop-color="#C23CE1"/>
    </linearGradient>
    <linearGradient id="Gradient_3" gradientUnits="userSpaceOnUse" x1="346.282" y1="190.126" x2="376.113" y2="415.593">
      <stop offset="0" stop-color="#BA35DD"/>
      <stop offset="1" stop-color="#7942E5"/>
    </linearGradient>
    <linearGradient id="Gradient_4" gradientUnits="userSpaceOnUse" x1="335.871" y1="338.967" x2="361.327" y2="416.734">
      <stop offset="0" stop-color="#BA35DD"/>
      <stop offset="1" stop-color="#7942E5"/>
    </linearGradient>
    <linearGradient id="Gradient_5" gradientUnits="userSpaceOnUse" x1="346.237" y1="282.246" x2="376.049" y2="416.3">
      <stop offset="0" stop-color="#BA35DD"/>
      <stop offset="1" stop-color="#7942E5"/>
    </linearGradient>
    <linearGradient id="Gradient_6" gradientUnits="userSpaceOnUse" x1="79.315" y1="268.985" x2="109.146" y2="494.452" gradientTransform="matrix(0.841, -0.542, 0.542, 0.841, 0, 0)">
      <stop offset="0" stop-color="#BA35DD"/>
      <stop offset="1" stop-color="#7942E5"/>
    </linearGradient>
    <linearGradient id="Gradient_7" gradientUnits="userSpaceOnUse" x1="68.903" y1="417.826" x2="94.36" y2="495.594" gradientTransform="matrix(0.841, -0.542, 0.542, 0.841, 0, 0)">
      <stop offset="0" stop-color="#BA35DD"/>
      <stop offset="1" stop-color="#7942E5"/>
    </linearGradient>
    <linearGradient id="Gradient_8" gradientUnits="userSpaceOnUse" x1="79.269" y1="361.106" x2="109.082" y2="495.16" gradientTransform="matrix(0.841, -0.542, 0.542, 0.841, 0, 0)">
      <stop offset="0" stop-color="#BA35DD"/>
      <stop offset="1" stop-color="#7942E5"/>
    </linearGradient>
    <linearGradient id="Gradient_9" gradientUnits="userSpaceOnUse" x1="1401.691" y1="246.61" x2="1404.841" y2="264.471">
      <stop offset="0" stop-color="#BA35DD"/>
      <stop offset="1" stop-color="#7942E5"/>
    </linearGradient>
    <linearGradient id="Gradient_10" gradientUnits="userSpaceOnUse" x1="284.595" y1="302.835" x2="567.4" y2="302.835">
      <stop offset="0" stop-color="#E12E00"/>
      <stop offset="1" stop-color="#FF8626"/>
    </linearGradient>
    <linearGradient id="Gradient_11" gradientUnits="userSpaceOnUse" x1="283.18" y1="432.225" x2="524.51" y2="432.225">
      <stop offset="0" stop-color="#E12E00"/>
      <stop offset="1" stop-color="#FF8626"/>
    </linearGradient>
    <linearGradient id="Gradient_12" gradientUnits="userSpaceOnUse" x1="284.586" y1="382.917" x2="567.217" y2="382.917">
      <stop offset="0" stop-color="#E12E00"/>
      <stop offset="1" stop-color="#FF8626"/>
    </linearGradient>
    <linearGradient id="Gradient_13" gradientUnits="userSpaceOnUse" x1="-25.544" y1="366.097" x2="257.261" y2="366.097" gradientTransform="matrix(0.841, -0.542, 0.542, 0.841, 0, 0)">
      <stop offset="0" stop-color="#E12E00"/>
      <stop offset="1" stop-color="#FF8626"/>
    </linearGradient>
    <linearGradient id="Gradient_14" gradientUnits="userSpaceOnUse" x1="-26.96" y1="495.487" x2="214.371" y2="495.487" gradientTransform="matrix(0.841, -0.542, 0.542, 0.841, 0, 0)">
      <stop offset="0" stop-color="#E12E00"/>
      <stop offset="1" stop-color="#FF8626"/>
    </linearGradient>
    <linearGradient id="Gradient_15" gradientUnits="userSpaceOnUse" x1="-25.553" y1="446.18" x2="257.078" y2="446.18" gradientTransform="matrix(0.841, -0.542, 0.542, 0.841, 0, 0)">
      <stop offset="0" stop-color="#E12D00"/>
      <stop offset="1" stop-color="#FF8526"/>
    </linearGradient>
    <linearGradient id="Gradient_16" gradientUnits="userSpaceOnUse" x1="115.394" y1="140.623" x2="162.623" y2="497.593">
      <stop offset="0" stop-color="#BA35DD"/>
      <stop offset="1" stop-color="#7942E5"/>
    </linearGradient>
    <linearGradient id="Gradient_17" gradientUnits="userSpaceOnUse" x1="138.804" y1="376.275" x2="179.107" y2="499.4">
      <stop offset="0" stop-color="#BA35DD"/>
      <stop offset="1" stop-color="#7942E5"/>
    </linearGradient>
    <linearGradient id="Gradient_18" gradientUnits="userSpaceOnUse" x1="115.495" y1="286.472" x2="162.696" y2="498.712">
      <stop offset="0" stop-color="#BA35DD"/>
      <stop offset="1" stop-color="#7942E5"/>
    </linearGradient>
    <linearGradient id="Gradient_19" gradientUnits="userSpaceOnUse" x1="324.02" y1="-71.678" x2="371.249" y2="285.292" gradientTransform="matrix(0.866, 0.5, -0.5, 0.866, 0, 0)">
      <stop offset="0" stop-color="#BA35DD"/>
      <stop offset="1" stop-color="#7942E5"/>
    </linearGradient>
    <linearGradient id="Gradient_20" gradientUnits="userSpaceOnUse" x1="347.43" y1="163.974" x2="387.733" y2="287.099" gradientTransform="matrix(0.866, 0.5, -0.5, 0.866, 0, 0)">
      <stop offset="0" stop-color="#BA35DD"/>
      <stop offset="1" stop-color="#7942E5"/>
    </linearGradient>
    <linearGradient id="Gradient_21" gradientUnits="userSpaceOnUse" x1="324.121" y1="74.172" x2="371.322" y2="286.412" gradientTransform="matrix(0.866, 0.5, -0.5, 0.866, 0, 0)">
      <stop offset="0" stop-color="#BA35DD"/>
      <stop offset="1" stop-color="#7942E5"/>
    </linearGradient>
  </defs>
  <g id="Background">
    <path d="M550.628,0 L550.628,550 L0,550 L0,0 L550.628,0 z M540.617,10 L10.011,10 L10.011,540 L540.617,540 L540.617,10 z" fill="url(#Gradient_1)" display="none"/>
    <path d="M415,550 L550.628,550 L550.667,275 L550.628,0 L410,0 L275.667,0 L135,0 L0,0 L0.667,275 L37.51,412.5 L138.167,513.157 L275.667,550 L415,550" fill="url(#Gradient_2)" display="none"/>
  </g>
  <g id="Layer_1">
    <g display="none">
      <g>
        <path d="M302.462,397.644 C302.226,398.009 300.054,402.851 299.844,403.126 C298.155,405.341 298.854,405.259 295.264,407.298 C291.229,409.588 275.303,417.332 275.303,417.332 C308.68,374.576 358.417,328.329 376.742,308.695 C434.768,244.56 436.622,188.387 436.622,188.387 C442.84,210.965 443.057,211.401 446.549,234.96 C448.229,249.733 445.862,262.078 441.544,272.209 C441.544,272.209 418.789,333.671 357.926,365.903 C357.926,365.903 342.5,374.478 324.929,381.202 C307.615,387.829 305.735,392.573 302.462,397.644 z" fill="url(#Gradient_3)" opacity="0.4"/>
        <path d="M308.047,379.18 C296.249,391.422 285.193,404.66 275.301,417.334 C275.301,417.334 291.226,409.59 295.261,407.3 C299.296,405.01 299.08,405.01 300.715,401.411 C302.35,397.812 306.551,383.741 335.51,379.161 C364.469,374.581 402.699,371.089 421.897,338.367 C421.897,338.367 409.026,349.055 365.832,355.601 C365.834,355.597 327.159,359.351 308.047,379.18 z" fill="url(#Gradient_4)" opacity="0.4"/>
        <path d="M308.047,379.18 C296.912,392.03 285.193,404.66 275.301,417.334 C275.301,417.334 291.226,409.59 295.261,407.3 C299.296,405.01 299.08,405.01 300.715,401.411 C302.35,397.812 306.551,383.741 335.51,379.161 C364.469,374.581 402.699,371.089 421.897,338.367 C421.897,338.367 409.026,349.055 365.832,355.601 C365.832,355.601 406.626,344.913 421.242,329.859 C429.75,320.478 437.384,311.099 446.984,281.212 C446.984,281.212 431.059,299.973 405.319,310.225 C405.317,310.223 346.029,335.354 308.047,379.18 z" fill="url(#Gradient_5)" opacity="0.4"/>
      </g>
      <g>
        <path d="M287.955,381.311 C287.954,381.745 288.751,386.992 288.723,387.337 C288.503,390.114 289.047,389.666 287.133,393.325 C284.982,397.436 275.79,412.571 275.79,412.571 C280.685,358.552 297.442,292.736 302.209,266.305 C316.244,180.963 287.373,132.74 287.373,132.74 C304.83,148.351 305.249,148.6 320.946,166.512 C330.361,178.019 335.058,189.679 336.916,200.533 C336.916,200.533 351.083,264.523 317.382,324.586 C317.382,324.586 309.061,340.149 297.933,355.319 C286.97,370.269 287.959,375.275 287.955,381.311 z" fill="url(#Gradient_6)" opacity="0.4"/>
        <path d="M282.647,362.765 C279.361,379.447 277.24,396.563 275.79,412.574 C275.79,412.574 284.981,397.439 287.133,393.328 C289.284,389.217 289.102,389.335 288.527,385.423 C287.952,381.512 283.86,367.409 305.722,347.872 C327.583,328.335 357.826,304.691 356.239,266.787 C356.239,266.787 351.209,282.743 318.448,311.643 C318.447,311.639 287.971,335.744 282.647,362.765 z" fill="url(#Gradient_7)" opacity="0.4"/>
        <path d="M282.647,362.765 C280.248,379.598 277.24,396.563 275.79,412.574 C275.79,412.574 284.981,397.439 287.133,393.328 C289.284,389.217 289.102,389.335 288.527,385.423 C287.952,381.512 283.86,367.409 305.722,347.872 C327.583,328.335 357.826,304.691 356.239,266.787 C356.239,266.787 351.209,282.743 318.448,311.643 C318.448,311.643 346.949,280.561 351.08,259.99 C353.15,247.496 354.486,235.476 346.366,205.154 C346.366,205.154 343.142,229.55 327.06,252.111 C327.057,252.111 290.834,305.351 282.647,362.765 z" fill="url(#Gradient_8)" opacity="0.4"/>
      </g>
      <g>
        <path d="M248.166,397.644 C248.402,398.009 250.574,402.851 250.785,403.126 C252.474,405.341 251.774,405.259 255.365,407.298 C259.4,409.588 275.325,417.332 275.325,417.332 C241.948,374.576 192.211,328.329 173.886,308.695 C115.86,244.561 114.006,188.387 114.006,188.387 C107.788,210.965 107.571,211.401 104.08,234.96 C102.399,249.733 104.766,262.078 109.085,272.209 C109.085,272.209 131.839,333.671 192.703,365.903 C192.703,365.903 208.128,374.478 225.699,381.202 C243.013,387.829 244.893,392.573 248.166,397.644 z" fill="#FFFFFF" opacity="0.4"/>
        <path d="M242.582,379.18 C254.38,391.422 265.435,404.66 275.327,417.334 C275.327,417.334 259.402,409.59 255.367,407.3 C251.332,405.01 251.549,405.01 249.913,401.411 C248.278,397.812 244.078,383.741 215.118,379.161 C186.159,374.581 147.93,371.089 128.731,338.367 C128.731,338.367 141.602,349.055 184.796,355.601 C184.794,355.597 223.469,359.351 242.582,379.18 z" fill="#FFFFFF" opacity="0.4"/>
        <path d="M242.582,379.18 C253.716,392.03 265.435,404.66 275.327,417.334 C275.327,417.334 259.402,409.59 255.367,407.3 C251.332,405.01 251.549,405.01 249.913,401.411 C248.278,397.812 244.078,383.741 215.118,379.161 C186.159,374.581 147.93,371.089 128.731,338.367 C128.731,338.367 141.602,349.055 184.796,355.601 C184.796,355.601 144.002,344.913 129.386,329.859 C120.878,320.478 113.244,311.099 103.644,281.212 C103.644,281.212 119.569,299.973 145.309,310.225 C145.311,310.223 204.599,335.354 242.582,379.18 z" fill="#FFFFFF" opacity="0.4"/>
      </g>
      <g>
        <path d="M261.529,380.969 C261.551,381.403 261.011,386.682 261.056,387.025 C261.411,389.788 260.846,389.367 262.936,392.928 C265.285,396.929 275.205,411.598 275.205,411.598 C267.678,357.882 247.728,292.962 241.675,266.796 C223.49,182.241 249.971,132.666 249.971,132.666 C233.297,149.111 232.892,149.38 218.088,168.037 C209.246,179.99 205.124,191.865 203.798,202.797 C203.798,202.797 192.773,267.402 229.366,325.748 C229.366,325.748 238.438,340.886 250.293,355.495 C261.973,369.892 261.23,374.94 261.529,380.969 z" fill="#FFFFFF" opacity="0.4"/>
        <path d="M265.924,362.186 C270.021,378.687 272.976,395.679 275.206,411.601 C275.206,411.601 265.286,396.932 262.937,392.931 C260.587,388.93 260.775,389.039 261.158,385.104 C261.542,381.169 264.94,366.883 242.15,348.437 C219.361,329.991 187.999,307.852 187.734,269.915 C187.734,269.915 193.536,285.607 227.67,312.873 C227.67,312.868 259.287,335.457 265.924,362.186 z" fill="#FFFFFF" opacity="0.4"/>
        <path d="M265.924,362.186 C269.143,378.881 272.976,395.679 275.206,411.601 C275.206,411.601 265.286,396.932 262.937,392.931 C260.587,388.931 260.775,389.039 261.158,385.104 C261.542,381.169 264.94,366.884 242.15,348.437 C219.361,329.991 187.999,307.852 187.734,269.915 C187.734,269.915 193.536,285.607 227.67,312.873 C227.67,312.873 197.686,283.22 192.555,262.875 C189.877,250.497 187.956,238.557 194.585,207.874 C194.585,207.874 198.996,232.084 216.161,253.833 C216.164,253.832 254.944,305.24 265.924,362.186 z" fill="#FFFFFF" opacity="0.4"/>
      </g>
    </g>
    <g>
      <g>
        <path d="M654.987,182.811 C654.987,187.179 656.127,190.743 658.426,193.505 C660.706,196.267 663.656,198.314 667.269,199.646 C670.885,200.97 674.866,202.11 679.235,203.066 C683.585,204.029 687.957,205.094 692.307,206.261 C696.676,207.435 700.661,208.944 704.273,210.806 C707.889,212.677 710.836,215.518 713.135,219.344 C715.415,223.171 716.555,227.909 716.555,233.542 C716.555,241.948 713.413,249.282 707.152,255.555 C700.871,261.835 692.288,264.969 681.391,264.969 C670.475,264.969 661.632,262.52 654.825,257.636 C648.018,252.74 644.613,246.151 644.613,237.85 L656.42,237.85 C656.842,242.956 659.017,247.186 662.964,250.539 C666.896,253.88 672.774,255.558 680.582,255.558 C688.409,255.558 694.621,253.542 699.253,249.496 C703.867,245.459 706.185,240.432 706.185,234.422 C706.185,228.42 704.062,223.894 699.814,220.868 C695.551,217.832 690.426,215.736 684.409,214.569 C678.407,213.395 672.39,212.041 666.388,210.498 C660.387,208.955 655.246,205.952 650.998,201.486 C646.735,197.019 644.613,190.528 644.613,182.017 C644.613,173.516 647.77,166.495 654.106,160.959 C660.439,155.432 668.774,152.67 679.145,152.67 C689.515,152.67 697.673,155.067 703.641,159.846 C709.59,164.636 713.202,171.014 714.486,178.991 L701.887,178.991 C701.466,174.525 699.22,170.611 695.186,167.27 C691.148,163.917 685.624,162.243 678.603,162.243 C671.581,162.243 665.88,163.996 661.53,167.507 C657.162,171.01 654.987,176.116 654.987,182.811 z" fill="#FFFFFF"/>
        <path d="M787.346,153.78 L787.346,162.878 L742.523,162.878 L742.523,204.037 L782.568,204.037 L782.568,212.97 L742.523,212.97 L742.523,254.926 L787.346,254.926 L787.346,263.859 L731.362,263.859 L731.362,153.787 L787.346,153.787 z" fill="#FFFFFF"/>
        <path d="M803.809,153.78 L814.97,153.78 L814.97,255.239 L855.014,255.239 L855.014,263.856 L803.813,263.856 L803.813,153.78 z" fill="#FFFFFF"/>
        <path d="M869.167,249.015 C858.367,238.486 852.971,225.09 852.971,208.816 C852.971,192.541 858.367,179.115 869.167,168.538 C879.959,157.957 893.223,152.666 908.963,152.666 C920.237,152.666 930.257,155.217 939.028,160.323 C947.803,165.43 954.426,172.869 958.893,182.652 L945.339,182.652 C941.926,176.169 937.038,171.168 930.66,167.657 C924.282,164.147 917.042,162.393 908.963,162.393 C896.094,162.393 885.46,166.649 877.061,175.16 C868.655,183.672 864.452,194.882 864.452,208.816 C864.452,222.75 868.655,233.971 877.061,242.471 C885.456,250.983 896.09,255.239 908.963,255.239 C917.042,255.239 924.282,253.459 930.66,249.895 C937.038,246.332 941.926,241.305 945.339,234.821 L958.893,234.821 C954.426,244.605 947.803,252.044 939.028,257.15 C930.253,262.256 920.237,264.808 908.963,264.808 C893.227,264.808 879.959,259.543 869.167,249.015 z" fill="#FFFFFF"/>
        <path d="M986.482,249.094 C975.683,238.512 970.287,225.09 970.287,208.816 C970.287,192.541 975.683,179.115 986.482,168.538 C997.274,157.957 1010.565,152.666 1026.358,152.666 C1042.15,152.666 1055.415,157.957 1066.165,168.538 C1076.904,179.119 1082.274,192.541 1082.274,208.816 C1082.274,225.09 1076.904,238.516 1066.165,249.094 C1055.418,259.675 1042.15,264.966 1026.358,264.966 C1010.565,264.966 997.274,259.675 986.482,249.094 z M1058.101,242.55 C1066.56,233.997 1070.79,222.75 1070.79,208.816 C1070.79,194.882 1066.587,183.672 1058.18,175.161 C1049.785,166.649 1039.151,162.393 1026.279,162.393 C1013.409,162.393 1002.749,166.649 994.298,175.161 C985.839,183.672 981.609,194.882 981.609,208.816 C981.609,222.75 985.839,233.997 994.298,242.55 C1002.745,251.114 1013.379,255.393 1026.199,255.393 C1039.02,255.393 1049.654,251.111 1058.101,242.55 z" fill="#FFFFFF"/>
        <path d="M1097.092,226.844 L1097.092,153.776 L1108.253,153.776 L1108.253,226.844 C1108.253,236.627 1110.883,243.882 1116.148,248.612 C1121.412,253.35 1128.614,255.709 1137.765,255.709 C1146.909,255.709 1154.093,253.35 1159.304,248.612 C1164.508,243.882 1167.112,236.627 1167.112,226.844 L1167.112,153.776 L1178.28,153.776 L1178.28,226.844 C1178.28,239.389 1174.506,248.883 1166.954,255.314 C1159.398,261.752 1149.671,264.966 1137.765,264.966 C1125.852,264.966 1116.095,261.756 1108.498,255.314 C1100.893,248.883 1097.092,239.389 1097.092,226.844 z" fill="#FFFFFF"/>
        <path d="M1194.905,162.875 L1194.905,153.776 L1263.656,153.776 L1263.656,162.875 L1234.784,162.875 L1234.784,263.852 L1223.781,263.852 L1223.781,162.875 L1194.905,162.875 z" fill="#FFFFFF"/>
        <path d="M1350.636,153.78 L1361.796,153.78 L1361.796,263.852 L1350.636,263.852 L1350.636,212.966 L1291.607,212.966 L1291.607,263.852 L1280.447,263.852 L1280.447,153.78 L1291.607,153.78 L1291.607,204.033 L1350.636,204.033 L1350.636,153.78 z" fill="#FFFFFF"/>
      </g>
      <g>
        <path d="M687.768,285.505 C705.63,285.505 719.914,290.532 730.601,300.586 C741.288,310.633 746.631,324.187 746.631,341.26 C746.631,358.324 741.288,371.784 730.601,381.616 C719.914,391.449 705.63,396.375 687.768,396.375 L651.558,396.375 L651.558,285.501 L687.768,285.501 z M669.736,382.497 L687.764,382.497 C700.626,382.497 710.549,378.828 717.517,371.487 C724.482,364.153 727.967,354.08 727.967,341.263 C727.967,328.447 724.482,318.4 717.517,311.119 C710.552,303.826 700.63,300.188 687.764,300.188 L669.736,300.188 L669.736,382.497 z" fill="#FFFFFF"/>
        <path d="M763.161,396.378 L763.161,285.505 L781.34,285.505 L781.34,396.378 L763.161,396.378 z" fill="#FFFFFF"/>
        <path d="M853.305,397.334 C838.152,397.334 825.098,392.017 814.141,381.383 C803.191,370.749 797.716,357.21 797.716,340.778 C797.716,324.353 803.191,310.791 814.141,300.105 C825.098,289.418 838.498,284.075 854.34,284.075 C866.148,284.075 876.65,286.969 885.846,292.771 C895.043,298.562 901.718,306.784 905.869,317.418 L884.014,317.418 C878.057,306.25 868.168,300.669 854.34,300.669 C843.179,300.669 834.054,304.338 826.984,311.672 C819.913,319.017 816.376,328.718 816.376,340.782 C816.376,352.853 819.913,362.557 826.984,369.903 C834.054,377.236 842.855,380.905 853.384,380.905 C863.913,380.905 872.292,378.117 878.513,372.537 C884.733,366.949 888.48,359.378 889.76,349.805 L848.12,349.805 L848.12,335.6 L909.218,335.6 L909.218,349.805 C907.517,363.096 901.56,374.347 891.344,383.539 C881.143,392.736 868.458,397.334 853.305,397.334 z" fill="#FFFFFF"/>
        <path d="M924.845,396.378 L924.845,285.505 L943.023,285.505 L943.023,396.378 L924.845,396.378 z" fill="#FFFFFF"/>
        <path d="M960.088,299.71 L960.088,285.505 L1037.453,285.505 L1037.453,299.71 L1007.948,299.71 L1007.948,396.378 L989.762,396.378 L989.762,299.71 L960.088,299.71 z" fill="#FFFFFF"/>
        <path d="M1109.276,396.378 L1101.302,373.726 L1054.879,373.726 L1046.906,396.378 L1027.918,396.378 L1067.635,285.347 L1088.693,285.347 L1128.421,396.378 L1109.276,396.378 z M1059.827,359.528 L1096.354,359.528 L1078.168,307.36 L1059.827,359.528 z" fill="#FFFFFF"/>
        <path d="M1143.405,285.505 L1161.583,285.505 L1161.583,382.497 L1199.073,382.497 L1199.073,396.378 L1143.405,396.378 L1143.405,285.505 z" fill="#FFFFFF"/>
      </g>
      <path d="M1403.266,264.609 C1398.258,264.609 1394.198,260.549 1394.198,255.541 C1394.198,250.532 1398.258,246.472 1403.266,246.472 C1408.274,246.472 1412.334,250.532 1412.334,255.541 C1412.334,260.549 1408.274,264.609 1403.266,264.609 z" fill="url(#Gradient_9)"/>
    </g>
    <path d="M275.667,550 C123.788,550 0.667,426.878 0.667,275 C0.667,123.122 123.788,0 275.667,0 C427.545,0 550.667,123.122 550.667,275 C550.667,426.878 427.545,550 275.667,550 z" fill-opacity="0" stroke="#000000" stroke-width="1" display="none"/>
    <g display="none">
      <path d="M0.667,275 L275.667,0" fill-opacity="0" stroke="#000000" stroke-width="1"/>
      <path d="M275.667,0 L550.667,275" fill-opacity="0" stroke="#000000" stroke-width="1"/>
      <path d="M550.667,275 L275.667,550" fill-opacity="0" stroke="#000000" stroke-width="1"/>
      <path d="M275.667,550 L0.667,275" fill-opacity="0" stroke="#000000" stroke-width="1"/>
    </g>
    <g display="none">
      <path d="M0.667,275 L275.667,0" fill-opacity="0" stroke="#000000" stroke-width="1"/>
      <path d="M275.667,0 L550.667,275" fill-opacity="0" stroke="#000000" stroke-width="1"/>
      <path d="M550.667,275 L275.667,550" fill-opacity="0" stroke="#000000" stroke-width="1"/>
      <path d="M275.667,550 L0.667,275" fill-opacity="0" stroke="#000000" stroke-width="1"/>
    </g>
    <g display="none">
      <path d="M37.51,137.5 L413.167,36.843" fill-opacity="0" stroke="#000000" stroke-width="1"/>
      <path d="M413.167,36.843 L513.824,412.5" fill-opacity="0" stroke="#000000" stroke-width="1"/>
      <path d="M513.824,412.5 L138.167,513.157" fill-opacity="0" stroke="#000000" stroke-width="1"/>
      <path d="M138.167,513.157 L37.51,137.5" fill-opacity="0" stroke="#000000" stroke-width="1"/>
    </g>
    <g display="none">
      <path d="M138.167,36.843 L513.824,137.5" fill-opacity="0" stroke="#000000" stroke-width="1"/>
      <path d="M513.824,137.5 L413.167,513.157" fill-opacity="0" stroke="#000000" stroke-width="1"/>
      <path d="M413.167,513.157 L37.51,412.5" fill-opacity="0" stroke="#000000" stroke-width="1"/>
      <path d="M37.51,412.5 L138.167,36.843" fill-opacity="0" stroke="#000000" stroke-width="1"/>
    </g>
    <g>
      <g>
        <path d="M317.965,469.176 C317.591,469.753 314.152,477.419 313.819,477.854 C311.145,481.361 312.253,481.232 306.568,484.46 C300.179,488.086 274.966,500.346 274.966,500.346 C327.809,432.654 406.555,359.432 435.568,328.347 C527.437,226.807 530.373,137.87 530.373,137.87 C540.217,173.617 540.56,174.307 546.089,211.607 C548.75,234.996 545.002,254.542 538.165,270.58 C538.165,270.58 502.139,367.89 405.777,418.922 C405.777,418.922 381.355,432.497 353.535,443.143 C326.123,453.636 323.147,461.146 317.965,469.176 z" fill="url(#Gradient_10)" opacity="0.4"/>
        <path d="M326.806,439.942 C308.127,459.325 290.624,480.284 274.962,500.349 C274.962,500.349 300.176,488.089 306.564,484.464 C312.952,480.838 312.609,480.838 315.199,475.139 C317.788,469.441 324.438,447.163 370.288,439.912 C416.137,432.66 476.663,427.132 507.059,375.325 C507.059,375.325 486.681,392.248 418.295,402.612 C418.299,402.605 357.066,408.548 326.806,439.942 z" fill="url(#Gradient_11)" opacity="0.4"/>
        <path d="M326.806,439.942 C309.177,460.286 290.624,480.284 274.962,500.349 C274.962,500.349 300.176,488.089 306.564,484.464 C312.953,480.838 312.609,480.838 315.199,475.139 C317.788,469.441 324.438,447.163 370.288,439.912 C416.138,432.66 476.664,427.132 507.059,375.325 C507.059,375.325 486.681,392.247 418.295,402.612 C418.295,402.612 482.882,385.689 506.023,361.855 C519.493,347.003 531.579,332.153 546.779,284.835 C546.779,284.835 521.565,314.538 480.813,330.77 C480.809,330.767 386.942,370.554 326.806,439.942 z" fill="url(#Gradient_12)" opacity="0.4"/>
      </g>
      <g>
        <path d="M294.996,443.316 C294.995,444.004 296.257,452.311 296.212,452.857 C295.864,457.253 296.725,456.544 293.695,462.337 C290.289,468.846 275.737,492.809 275.737,492.809 C283.487,407.284 310.016,303.08 317.564,261.234 C339.784,126.117 294.075,49.768 294.075,49.768 C321.714,74.484 322.376,74.878 347.229,103.237 C362.135,121.456 369.572,139.915 372.513,157.101 C372.513,157.101 394.943,258.412 341.587,353.507 C341.587,353.507 328.412,378.147 310.794,402.165 C293.436,425.835 295.002,433.759 294.996,443.316 z" fill="url(#Gradient_13)" opacity="0.4"/>
        <path d="M286.593,413.954 C281.391,440.364 278.031,467.464 275.736,492.814 C275.736,492.814 290.288,468.85 293.694,462.342 C297.1,455.834 296.812,456.02 295.901,449.827 C294.991,443.634 288.513,421.306 323.125,390.374 C357.738,359.442 405.62,322.009 403.106,261.996 C403.106,261.996 395.143,287.259 343.274,333.015 C343.273,333.008 295.022,371.173 286.593,413.954 z" fill="url(#Gradient_14)" opacity="0.4"/>
        <path d="M286.593,413.954 C282.794,440.604 278.031,467.464 275.736,492.814 C275.736,492.814 290.289,468.85 293.694,462.342 C297.1,455.834 296.812,456.02 295.901,449.827 C294.991,443.634 288.513,421.306 323.126,390.374 C357.738,359.442 405.62,322.009 403.106,261.996 C403.106,261.996 395.144,287.259 343.274,333.015 C343.274,333.015 388.398,283.805 394.939,251.235 C398.215,231.454 400.331,212.424 387.476,164.417 C387.476,164.417 382.372,203.042 356.909,238.762 C356.904,238.761 299.554,323.053 286.593,413.954 z" fill="url(#Gradient_15)" opacity="0.4"/>
      </g>
      <g>
        <path d="M232.001,469.176 C232.375,469.753 235.814,477.419 236.147,477.854 C238.821,481.361 237.714,481.232 243.398,484.46 C249.787,488.086 275,500.346 275,500.346 C222.157,432.654 143.411,359.432 114.399,328.347 C22.529,226.807 19.593,137.87 19.593,137.87 C9.749,173.617 9.406,174.307 3.877,211.607 C1.216,234.996 4.965,254.542 11.801,270.58 C11.801,270.58 47.827,367.89 144.189,418.922 C144.189,418.922 168.611,432.497 196.431,443.143 C223.843,453.636 226.819,461.146 232.001,469.176 z" fill="url(#Gradient_16)" opacity="0.4"/>
        <path d="M223.16,439.942 C241.839,459.325 259.342,480.284 275.004,500.349 C275.004,500.349 249.79,488.089 243.402,484.464 C237.013,480.838 237.357,480.838 234.767,475.139 C232.178,469.441 225.528,447.163 179.678,439.912 C133.828,432.66 73.302,427.132 42.907,375.325 C42.907,375.325 63.285,392.247 131.671,402.612 C131.667,402.605 192.9,408.548 223.16,439.942 z" fill="url(#Gradient_17)" opacity="0.4"/>
        <path d="M223.16,439.942 C240.789,460.287 259.342,480.284 275.004,500.349 C275.004,500.349 249.79,488.089 243.402,484.464 C237.013,480.838 237.357,480.838 234.767,475.139 C232.178,469.441 225.528,447.163 179.678,439.912 C133.828,432.66 73.302,427.132 42.907,375.325 C42.907,375.325 63.285,392.248 131.671,402.612 C131.671,402.612 67.084,385.689 43.943,361.855 C30.474,347.003 18.387,332.153 3.187,284.835 C3.187,284.835 28.401,314.538 69.153,330.77 C69.157,330.767 163.024,370.554 223.16,439.942 z" fill="url(#Gradient_18)" opacity="0.4"/>
      </g>
      <g>
        <path d="M253.157,442.774 C253.192,443.461 252.337,451.819 252.408,452.363 C252.971,456.737 252.076,456.071 255.385,461.709 C259.105,468.043 274.81,491.268 274.81,491.268 C262.893,406.223 231.307,303.438 221.724,262.011 C192.933,128.14 234.859,49.65 234.859,49.65 C208.46,75.687 207.818,76.112 184.38,105.651 C170.381,124.576 163.854,143.377 161.756,160.685 C161.756,160.685 144.301,262.971 202.236,355.347 C202.236,355.347 216.599,379.314 235.368,402.444 C253.861,425.237 252.684,433.229 253.157,442.774 z" fill="url(#Gradient_19)" opacity="0.4"/>
        <path d="M260.117,413.036 C266.602,439.161 271.281,466.064 274.811,491.272 C274.811,491.272 259.106,468.048 255.386,461.714 C251.667,455.38 251.964,455.551 252.571,449.322 C253.178,443.092 258.557,420.474 222.476,391.269 C186.395,362.064 136.742,327.013 136.322,266.95 C136.322,266.95 145.509,291.794 199.551,334.962 C199.551,334.955 249.608,370.718 260.117,413.036 z" fill="url(#Gradient_20)" opacity="0.4"/>
        <path d="M260.117,413.036 C265.212,439.469 271.281,466.064 274.811,491.272 C274.811,491.272 259.106,468.048 255.386,461.714 C251.667,455.38 251.964,455.551 252.571,449.322 C253.177,443.092 258.557,420.474 222.476,391.269 C186.394,362.064 136.742,327.013 136.322,266.95 C136.322,266.95 145.509,291.794 199.55,334.962 C199.55,334.962 152.078,288.014 143.954,255.803 C139.715,236.205 136.673,217.301 147.168,168.723 C147.168,168.723 154.153,207.053 181.329,241.487 C181.334,241.486 242.732,322.877 260.117,413.036 z" fill="url(#Gradient_21)" opacity="0.4"/>
      </g>
    </g>
  </g>
</svg>
